<svg width="100" height="44" viewBox="0 0 100 44" fill="none" xmlns="http://www.w3.org/2000/svg">
<path d="M11.298 16.77V26.5H9.702V19.836L6.734 26.5H5.628L2.646 19.836V26.5H1.05V16.77H2.772L6.188 24.4L9.59 16.77H11.298ZM18.4917 18.058V20.914H21.8517V22.216H18.4917V25.198H22.2717V26.5H16.8957V16.756H22.2717V18.058H18.4917ZM35.7315 26.5H34.1355L29.3335 19.234V26.5H27.7375V16.756H29.3335L34.1355 24.008V16.756H35.7315V26.5ZM42.9093 16.77V22.972C42.9093 23.7093 43.1007 24.2647 43.4833 24.638C43.8753 25.0113 44.4167 25.198 45.1073 25.198C45.8073 25.198 46.3487 25.0113 46.7313 24.638C47.1233 24.2647 47.3193 23.7093 47.3193 22.972V16.77H48.9153V22.944C48.9153 23.7373 48.7427 24.4093 48.3973 24.96C48.052 25.5107 47.59 25.9213 47.0113 26.192C46.4327 26.4627 45.7933 26.598 45.0933 26.598C44.3933 26.598 43.754 26.4627 43.1753 26.192C42.606 25.9213 42.1533 25.5107 41.8173 24.96C41.4813 24.4093 41.3133 23.7373 41.3133 22.944V16.77H42.9093Z" fill="white"/>
<path d="M66 16H84" stroke="#D1D0E2" stroke-width="2" stroke-linecap="round" stroke-linejoin="round"/>
<path d="M66 22H84" stroke="#D1D0E2" stroke-width="2" stroke-linecap="round" stroke-linejoin="round"/>
<path d="M66 28H84" stroke="#D1D0E2" stroke-width="2" stroke-linecap="round" stroke-linejoin="round"/>
</svg>
