<svg width="70" height="71" viewBox="0 0 70 71" fill="none" xmlns="http://www.w3.org/2000/svg">
<path d="M64.0981 35.7827C67.3576 35.7827 70.0507 38.4436 69.5036 41.6569C68.4494 47.8491 65.7406 53.6821 61.6142 58.5134C56.202 64.8503 48.7062 69.0481 40.4752 70.3518C32.2442 71.6555 23.8181 69.9794 16.7126 65.6251C9.60698 61.2708 4.28825 54.524 1.71302 46.5983C-0.862205 38.6726 -0.524918 30.088 2.66422 22.3888C5.85335 14.6895 11.685 8.38087 19.1103 4.59749C26.5356 0.814108 35.0672 -0.195675 43.1706 1.74977C49.3487 3.23299 54.9687 6.35979 59.4613 10.7497C61.7926 13.0277 61.1779 16.7634 58.5409 18.6793C55.9039 20.5952 52.2482 19.9336 49.7302 17.8638C47.0356 15.6488 43.8559 14.0535 40.4151 13.2274C35.0446 11.938 29.3902 12.6073 24.4691 15.1147C19.548 17.6221 15.6831 21.8032 13.5695 26.9059C11.4559 32.0086 11.2323 37.698 12.9391 42.9507C14.6458 48.2035 18.1708 52.675 22.88 55.5608C27.5892 58.4466 33.1736 59.5574 38.6287 58.6934C44.0838 57.8294 49.0516 55.0473 52.6386 50.8475C54.9367 48.1567 56.5714 44.997 57.4495 41.6213C58.2699 38.4667 60.8386 35.7827 64.0981 35.7827Z" fill="#FF0004"/>
<path d="M28.29 40.3721C27.586 40.3721 27.0207 40.2707 26.594 40.0681C26.1673 39.8654 25.8527 39.6041 25.65 39.2841C25.458 38.9641 25.362 38.6441 25.362 38.3241C25.362 38.0467 25.442 37.8014 25.602 37.5881C25.7727 37.3641 26.0073 37.2521 26.306 37.2521C26.658 37.2414 26.898 37.3427 27.026 37.5561C27.154 37.7587 27.218 37.9561 27.218 38.1481C27.218 38.2441 27.1967 38.3614 27.154 38.5001C27.122 38.6281 27.0687 38.7347 26.994 38.8201C27.0793 38.9907 27.2233 39.1347 27.426 39.2521C27.6393 39.3694 27.922 39.4227 28.274 39.4121C28.6367 39.4014 28.9513 39.3054 29.218 39.1241C29.4847 38.9427 29.7087 38.6974 29.89 38.3881C30.0713 38.0787 30.21 37.7321 30.306 37.3481C30.4127 36.9641 30.482 36.5694 30.514 36.1641C30.5567 35.7481 30.5727 35.3427 30.562 34.9481C30.3593 35.2041 30.0553 35.4441 29.65 35.6681C29.2447 35.8814 28.802 35.9934 28.322 36.0041C27.714 36.0147 27.1913 35.9241 26.754 35.7321C26.3273 35.5401 25.9753 35.2734 25.698 34.9321C25.4313 34.5907 25.234 34.1961 25.106 33.7481C24.978 33.3001 24.914 32.8307 24.914 32.3401C24.914 31.6254 25.074 30.9961 25.394 30.4521C25.714 29.8974 26.162 29.4601 26.738 29.1401C27.314 28.8201 27.9807 28.6601 28.738 28.6601C29.4633 28.6601 30.0713 28.7987 30.562 29.0761C31.0633 29.3427 31.4633 29.7267 31.762 30.2281C32.0607 30.7187 32.274 31.3001 32.402 31.9721C32.5407 32.6441 32.61 33.3747 32.61 34.1641C32.61 34.6441 32.5727 35.1614 32.498 35.7161C32.434 36.2707 32.3167 36.8254 32.146 37.3801C31.9753 37.9241 31.73 38.4254 31.41 38.8841C31.09 39.3321 30.674 39.6947 30.162 39.9721C29.65 40.2387 29.026 40.3721 28.29 40.3721ZM28.722 34.9161C28.9887 34.9161 29.2393 34.8574 29.474 34.7401C29.7193 34.6227 29.9327 34.4681 30.114 34.2761C30.306 34.0734 30.45 33.8547 30.546 33.6201C30.5353 33.1187 30.498 32.6281 30.434 32.1481C30.37 31.6681 30.2687 31.2361 30.13 30.8521C29.9913 30.4681 29.8047 30.1641 29.57 29.9401C29.3353 29.7161 29.042 29.6041 28.69 29.6041C28.3273 29.6041 28.0233 29.7214 27.778 29.9561C27.5327 30.1801 27.346 30.4734 27.218 30.8361C27.1007 31.1881 27.042 31.5667 27.042 31.9721C27.042 32.2281 27.0633 32.5267 27.106 32.8681C27.1487 33.1987 27.2233 33.5241 27.33 33.8441C27.4473 34.1534 27.618 34.4094 27.842 34.6121C28.066 34.8147 28.3593 34.9161 28.722 34.9161ZM38.4844 40.3721C37.6737 40.3721 36.9911 40.2014 36.4364 39.8601C35.8817 39.5081 35.4391 39.0494 35.1084 38.4841C34.7777 37.9081 34.5377 37.2787 34.3884 36.5961C34.2497 35.9134 34.1804 35.2361 34.1804 34.5641C34.1804 33.8921 34.2657 33.2094 34.4364 32.5161C34.6177 31.8227 34.8897 31.1881 35.2524 30.6121C35.6151 30.0254 36.0684 29.5561 36.6124 29.2041C37.1564 28.8414 37.8017 28.6601 38.5484 28.6601C39.3271 28.6601 39.9831 28.8361 40.5164 29.1881C41.0604 29.5401 41.4924 30.0041 41.8124 30.5801C42.1431 31.1454 42.3831 31.7694 42.5324 32.4521C42.6817 33.1347 42.7564 33.8121 42.7564 34.4841C42.7564 35.1454 42.6711 35.8227 42.5004 36.5161C42.3404 37.2094 42.0844 37.8494 41.7324 38.4361C41.3911 39.0121 40.9484 39.4814 40.4044 39.8441C39.8711 40.1961 39.2311 40.3721 38.4844 40.3721ZM38.5804 39.4121C38.9751 39.4121 39.3057 39.2841 39.5724 39.0281C39.8391 38.7721 40.0417 38.4307 40.1804 38.0041C40.3297 37.5667 40.4364 37.0761 40.5004 36.5321C40.5644 35.9774 40.5964 35.4067 40.5964 34.8201C40.5964 34.1694 40.5644 33.5347 40.5004 32.9161C40.4471 32.2974 40.3457 31.7427 40.1964 31.2521C40.0471 30.7507 39.8337 30.3507 39.5564 30.0521C39.2897 29.7534 38.9431 29.6041 38.5164 29.6041C38.1004 29.6041 37.7537 29.7321 37.4764 29.9881C37.2097 30.2441 36.9911 30.5907 36.8204 31.0281C36.6497 31.4654 36.5271 31.9614 36.4524 32.5161C36.3884 33.0601 36.3564 33.6307 36.3564 34.2281C36.3564 34.6761 36.3724 35.1401 36.4044 35.6201C36.4364 36.1001 36.4951 36.5641 36.5804 37.0121C36.6764 37.4601 36.8044 37.8654 36.9644 38.2281C37.1351 38.5907 37.3484 38.8787 37.6044 39.0921C37.8711 39.3054 38.1964 39.4121 38.5804 39.4121ZM46.4661 40.3881L45.5381 39.5561L54.6261 28.6601L55.6501 29.5721L46.4661 40.3881ZM47.1381 34.8681C46.4875 34.8681 45.9381 34.7241 45.4901 34.4361C45.0528 34.1374 44.7168 33.7587 44.4821 33.3001C44.2581 32.8307 44.1461 32.3347 44.1461 31.8121C44.1461 31.3107 44.2635 30.8254 44.4981 30.3561C44.7328 29.8761 45.0688 29.4761 45.5061 29.1561C45.9541 28.8361 46.4875 28.6707 47.1061 28.6601C47.7675 28.6494 48.3221 28.7934 48.7701 29.0921C49.2181 29.3907 49.5541 29.7747 49.7781 30.2441C50.0021 30.7027 50.1141 31.1774 50.1141 31.6681C50.1141 32.2227 49.9808 32.7454 49.7141 33.2361C49.4475 33.7267 49.0901 34.1214 48.6421 34.4201C48.1941 34.7187 47.6928 34.8681 47.1381 34.8681ZM47.1701 33.8121C47.4688 33.8121 47.7035 33.7161 47.8741 33.5241C48.0448 33.3214 48.1675 33.0761 48.2421 32.7881C48.3168 32.4894 48.3541 32.2014 48.3541 31.9241C48.3541 31.6894 48.3328 31.4441 48.2901 31.1881C48.2581 30.9321 48.1941 30.6921 48.0981 30.4681C48.0021 30.2441 47.8741 30.0574 47.7141 29.9081C47.5541 29.7587 47.3568 29.6841 47.1221 29.6841C46.8235 29.6841 46.5835 29.7961 46.4021 30.0201C46.2208 30.2334 46.0928 30.4894 46.0181 30.7881C45.9541 31.0867 45.9221 31.3641 45.9221 31.6201C45.9221 31.8334 45.9381 32.0681 45.9701 32.3241C46.0128 32.5694 46.0768 32.8094 46.1621 33.0441C46.2475 33.2681 46.3701 33.4547 46.5301 33.6041C46.7008 33.7427 46.9141 33.8121 47.1701 33.8121ZM54.2261 40.3721C53.5755 40.3721 53.0261 40.2281 52.5781 39.9401C52.1301 39.6521 51.7941 39.2734 51.5701 38.8041C51.3461 38.3347 51.2341 37.8441 51.2341 37.3321C51.2341 36.8201 51.3568 36.3241 51.6021 35.8441C51.8475 35.3641 52.1941 34.9694 52.6421 34.6601C53.0901 34.3401 53.6128 34.1747 54.2101 34.1641C54.8608 34.1641 55.4048 34.3134 55.8421 34.6121C56.2795 34.9001 56.6101 35.2787 56.8341 35.7481C57.0688 36.2174 57.1861 36.6974 57.1861 37.1881C57.1861 37.7214 57.0581 38.2334 56.8021 38.7241C56.5568 39.2041 56.2101 39.5987 55.7621 39.9081C55.3248 40.2174 54.8128 40.3721 54.2261 40.3721ZM54.2581 39.3321C54.5568 39.3321 54.7915 39.2307 54.9621 39.0281C55.1328 38.8147 55.2501 38.5641 55.3141 38.2761C55.3888 37.9774 55.4261 37.6894 55.4261 37.4121C55.4261 37.1881 55.4048 36.9534 55.3621 36.7081C55.3301 36.4521 55.2661 36.2121 55.1701 35.9881C55.0848 35.7534 54.9621 35.5667 54.8021 35.4281C54.6421 35.2787 54.4395 35.2041 54.1941 35.2041C53.8955 35.2041 53.6555 35.3107 53.4741 35.5241C53.3035 35.7374 53.1808 35.9934 53.1061 36.2921C53.0315 36.5801 52.9941 36.8467 52.9941 37.0921C52.9941 37.3161 53.0101 37.5561 53.0421 37.8121C53.0848 38.0681 53.1541 38.3134 53.2501 38.5481C53.3461 38.7721 53.4741 38.9587 53.6341 39.1081C53.7941 39.2574 54.0021 39.3321 54.2581 39.3321Z" fill="#FF0004"/>
</svg>
