<svg width="17" height="17" viewBox="0 0 17 17" fill="none" xmlns="http://www.w3.org/2000/svg">
<g id="instagram" clip-path="url(#clip0_140_140)">
<path id="Vector" d="M11.7614 1.51953H4.96167C3.08399 1.51953 1.56183 3.04169 1.56183 4.91938V11.7191C1.56183 13.5968 3.08399 15.1189 4.96167 15.1189H11.7614C13.639 15.1189 15.1612 13.5968 15.1612 11.7191V4.91938C15.1612 3.04169 13.639 1.51953 11.7614 1.51953Z" stroke="black" stroke-width="1.35994" stroke-linecap="round" stroke-linejoin="round"/>
<path id="Vector_2" d="M11.0814 7.89087C11.1653 8.45677 11.0686 9.03472 10.8051 9.54252C10.5416 10.0503 10.1247 10.4621 9.61373 10.7193C9.10272 10.9765 8.52362 11.066 7.95879 10.9752C7.39397 10.8843 6.87219 10.6176 6.46766 10.2131C6.06313 9.80854 5.79645 9.28676 5.70557 8.72193C5.61468 8.15711 5.70421 7.57801 5.96141 7.067C6.21862 6.55599 6.63041 6.13909 7.13821 5.8756C7.64601 5.61211 8.22396 5.51545 8.78986 5.59937C9.3671 5.68497 9.90151 5.95395 10.3141 6.36658C10.7268 6.77922 10.9958 7.31362 11.0814 7.89087Z" stroke="black" stroke-width="1.35994" stroke-linecap="round" stroke-linejoin="round"/>
<path id="Vector_3" d="M12.1014 4.57941H12.1094" stroke="black" stroke-width="1.35994" stroke-linecap="round" stroke-linejoin="round"/>
</g>
<defs>
<clipPath id="clip0_140_140">
<rect width="16.3193" height="16.3193" fill="white" transform="translate(0.201843 0.159607)"/>
</clipPath>
</defs>
</svg>
