<svg width="50" height="50" viewBox="0 0 50 50" fill="none" xmlns="http://www.w3.org/2000/svg">
<g id="Layer_1" clip-path="url(#clip0_89_64)">
<path id="Vector" d="M25 50C38.8071 50 50 38.8071 50 25C50 11.1929 38.8071 0 25 0C11.1929 0 0 11.1929 0 25C0 38.8071 11.1929 50 25 50Z" fill="#040029"/>
<g id="Group">
<g id="Group_2" filter="url(#filter0_dd_89_64)">
<path id="Vector_2" d="M34.0256 36.9642C33.7833 37.2355 33.5427 37.4386 33.302 37.5734C33.2304 37.6126 33.157 37.6468 33.0785 37.6741C33.2986 37.9369 33.5324 38.1707 33.7799 38.372C34.0802 38.128 34.372 37.855 34.657 37.5512L34.0256 36.9642Z" fill="#FF0004"/>
<path id="Vector_3" d="M29.4557 38.6058C27.6946 37.6758 26.3601 36.355 25.4523 34.6382C25.4267 34.5904 25.4011 34.5427 25.3755 34.4932C25.2663 34.2782 25.1639 34.058 25.0683 33.8328C24.3635 32.1826 24.0103 30.244 24.0103 28.0171C24.0103 26.8737 24.1212 25.7969 24.3448 24.7867C23.1843 24.4386 21.7901 24.2099 20.1622 24.099C21.4181 23.9727 22.5359 23.7713 23.5171 23.4949C23.9898 23.3618 24.4369 23.2167 24.8567 23.0597C26.0564 22.6109 27.041 22.0631 27.8106 21.4164C28.8499 20.5427 29.5888 19.5853 30.0256 18.5461C30.2645 17.9778 30.4386 17.4044 30.5444 16.8225C30.6366 16.3396 30.6809 15.8515 30.6809 15.3601C30.6809 13.6433 30.198 12.2048 29.2338 11.0444C28.2697 9.88396 26.8311 9.00342 24.9181 8.40103C23.0052 7.79864 20.5717 7.49659 17.6195 7.49659C17.0461 7.49659 16.0751 7.51195 14.7048 7.54096C13.3328 7.57168 11.9096 7.58703 10.4335 7.58703C9.07683 7.58703 7.72188 7.57168 6.36523 7.54096C5.01028 7.51195 3.92496 7.48123 3.11096 7.45052V8.35495C4.04441 8.38567 4.74577 8.4983 5.21335 8.69454C5.67922 8.89079 5.99663 9.25256 6.16216 9.77816C6.32769 10.3055 6.4113 11.128 6.4113 12.2423V34.6587C6.4113 35.744 6.32769 36.5563 6.16216 37.099C5.99663 37.6416 5.67922 38.0034 5.21335 38.1843C4.74577 38.3652 4.04441 38.4846 3.11096 38.5461V39.4488C3.92496 39.3891 5.01028 39.3515 6.36523 39.3362C7.72188 39.3208 9.16728 39.314 10.7048 39.314C12.0308 39.314 13.3482 39.3208 14.6587 39.3362C15.9693 39.3515 17.0461 39.3891 17.8908 39.4488V38.5461C16.9557 38.4846 16.256 38.3652 15.7884 38.1843C15.3209 38.0034 15.0052 37.6416 14.8396 37.099C14.6741 36.5563 14.5905 35.744 14.5905 34.6587V24.2645H17.0768C17.9506 24.2645 18.628 24.5427 19.111 25.099C19.5922 25.657 19.9761 26.4181 20.2628 27.3823C20.5495 28.3464 20.7833 29.4471 20.9642 30.6809L21.7321 35.2014C22.0325 37.07 22.7492 38.3498 23.8789 39.0427C25.0086 39.7355 26.4625 40.0819 28.2407 40.0819C29.5956 40.0819 30.7867 39.8942 31.8106 39.5171C31.8106 39.5171 31.814 39.5154 31.8157 39.5154C30.9591 39.2884 30.1741 38.9846 29.4557 38.6058ZM16.1724 23.3601H14.5905V12.2423C14.5905 10.6758 14.7492 9.63652 15.0666 9.12287C15.3823 8.61093 16.0973 8.35495 17.2134 8.35495C19.0205 8.35495 20.3004 9.01024 21.0546 10.3208C21.8072 11.6314 22.1843 13.4778 22.1843 15.8567C22.1843 17.244 22.0256 18.5017 21.7099 19.6314C21.3925 20.7611 20.8055 21.6655 19.9471 22.343C19.0888 23.0205 17.8294 23.3601 16.1724 23.3601Z" fill="#FF0004"/>
</g>
<g id="Vector_4" filter="url(#filter1_d_89_64)">
<path d="M46.8891 29.4488V30.1161C46.4898 30.1365 46.1826 30.2133 45.971 30.3481C45.7611 30.4812 45.6229 30.7475 45.5563 31.1468C45.4898 31.5461 45.4556 32.157 45.4556 32.9778V39.5717H44.7901C44.7679 39.1946 44.6792 38.785 44.5239 38.3396C44.3686 37.8976 44.1126 37.6741 43.7577 37.6741C43.6024 37.6741 43.3789 37.7184 43.0922 37.8072C42.8038 37.8976 42.3481 38.0956 41.727 38.4062C40.9045 38.8515 40.0239 39.2338 39.0802 39.5546C38.1348 39.8771 37.1758 40.0376 36.1997 40.0376C34.5785 40.0376 33.1178 39.8635 31.8157 39.5154C30.9591 39.2884 30.1741 38.9847 29.4556 38.6058C27.6946 37.6758 26.3601 36.355 25.4522 34.6382C25.4266 34.5905 25.401 34.5427 25.3754 34.4932C25.2662 34.2782 25.1638 34.058 25.0683 33.8328C24.3635 32.1826 24.0103 30.244 24.0103 28.0171C24.0103 26.8737 24.1212 25.7969 24.3447 24.7867C24.4744 24.1877 24.6451 23.6109 24.8567 23.0597C26.0563 22.6109 27.041 22.0632 27.8106 21.4164C28.8498 20.5427 29.5888 19.5853 30.0256 18.5461C30.2645 17.9778 30.4386 17.4044 30.5444 16.8225C32.2918 15.9608 34.2662 15.529 36.4659 15.529C37.9966 15.529 39.2509 15.7406 40.2287 16.1621C41.2048 16.5836 42.0819 17.0939 42.8601 17.6928C43.1024 17.8925 43.3242 17.9932 43.5256 17.9932C43.9471 17.9932 44.2253 17.3277 44.3584 15.9949H45.1229C45.0785 16.8618 45.0461 17.9283 45.0239 19.1911C45.0017 20.4573 44.9898 22.1229 44.9898 24.1877H44.2253C44.0683 22.7219 43.814 21.4727 43.4573 20.442C43.1024 19.4096 42.4266 18.5256 41.4266 17.7935C40.9147 17.372 40.3123 17.0444 39.6126 16.8123C38.913 16.5768 38.2184 16.4625 37.5307 16.4625C36.2867 16.4625 35.2389 16.8004 34.384 17.4778C33.529 18.1536 32.8362 19.041 32.3021 20.1417C31.7696 21.2406 31.3874 22.4625 31.1536 23.8038C30.9215 25.1485 30.8038 26.4966 30.8038 27.8498C30.8038 30.2253 30.9847 32.2184 31.3516 33.8328C31.413 34.1126 31.4829 34.3806 31.558 34.6382C31.7748 35.3942 32.041 36.0495 32.3533 36.6075C32.5751 37.0051 32.8174 37.3618 33.0785 37.6741C33.2986 37.9369 33.5324 38.1707 33.7799 38.372C34.5956 39.0393 35.5563 39.372 36.6655 39.372C37.1092 39.372 37.4983 39.3225 37.8311 39.2219C38.1638 39.1212 38.4403 38.9949 38.6638 38.8396C38.9505 38.6382 39.1519 38.4062 39.2628 38.1399C39.3737 37.8737 39.43 37.541 39.43 37.1399V33.8328C39.43 32.7952 39.3396 32.0171 39.1621 31.4966C38.9847 30.9744 38.657 30.6195 38.1809 30.4318C37.7031 30.244 36.9983 30.1365 36.0649 30.1161V29.4488C36.5546 29.471 37.1417 29.4881 37.8311 29.4983C38.5188 29.5103 39.2406 29.5222 39.9949 29.5324C40.7492 29.5427 41.4488 29.5478 42.0939 29.5478C43.0922 29.5478 44.0085 29.5376 44.8413 29.5154C45.6741 29.4932 46.355 29.471 46.8891 29.4488Z" fill="#D1D0E2"/>
</g>
</g>
</g>
<defs>
<filter id="filter0_dd_89_64" x="2.23329" y="7.27498" width="34.0035" height="34.3867" filterUnits="userSpaceOnUse" color-interpolation-filters="sRGB">
<feFlood flood-opacity="0" result="BackgroundImageFix"/>
<feColorMatrix in="SourceAlpha" type="matrix" values="0 0 0 0 0 0 0 0 0 0 0 0 0 0 0 0 0 0 127 0" result="hardAlpha"/>
<feOffset dy="0.702139"/>
<feGaussianBlur stdDeviation="0.438837"/>
<feComposite in2="hardAlpha" operator="out"/>
<feColorMatrix type="matrix" values="0 0 0 0 0 0 0 0 0 0 0 0 0 0 0 0 0 0 0.25 0"/>
<feBlend mode="normal" in2="BackgroundImageFix" result="effect1_dropShadow_89_64"/>
<feColorMatrix in="SourceAlpha" type="matrix" values="0 0 0 0 0 0 0 0 0 0 0 0 0 0 0 0 0 0 127 0" result="hardAlpha"/>
<feOffset dx="0.702139" dy="0.702139"/>
<feGaussianBlur stdDeviation="0.438837"/>
<feComposite in2="hardAlpha" operator="out"/>
<feColorMatrix type="matrix" values="0 0 0 0 0.819608 0 0 0 0 0.815686 0 0 0 0 0.886275 0 0 0 0.25 0"/>
<feBlend mode="normal" in2="effect1_dropShadow_89_64" result="effect2_dropShadow_89_64"/>
<feBlend mode="normal" in="SourceGraphic" in2="effect2_dropShadow_89_64" result="shape"/>
</filter>
<filter id="filter1_d_89_64" x="24.0103" y="15.3535" width="24.8097" height="26.2639" filterUnits="userSpaceOnUse" color-interpolation-filters="sRGB">
<feFlood flood-opacity="0" result="BackgroundImageFix"/>
<feColorMatrix in="SourceAlpha" type="matrix" values="0 0 0 0 0 0 0 0 0 0 0 0 0 0 0 0 0 0 127 0" result="hardAlpha"/>
<feOffset dx="1.05321" dy="0.702139"/>
<feGaussianBlur stdDeviation="0.438837"/>
<feComposite in2="hardAlpha" operator="out"/>
<feColorMatrix type="matrix" values="0 0 0 0 0.635294 0 0 0 0 0.635294 0 0 0 0 0.768627 0 0 0 0.25 0"/>
<feBlend mode="normal" in2="BackgroundImageFix" result="effect1_dropShadow_89_64"/>
<feBlend mode="normal" in="SourceGraphic" in2="effect1_dropShadow_89_64" result="shape"/>
</filter>
<clipPath id="clip0_89_64">
<rect width="50" height="50" fill="white"/>
</clipPath>
</defs>
</svg>
