<svg width="136" height="50" viewBox="0 0 136 50" fill="none" xmlns="http://www.w3.org/2000/svg">
<g clip-path="url(#clip0_172_44)">
<path d="M25 50C38.8071 50 50 38.8071 50 25C50 11.1929 38.8071 0 25 0C11.1929 0 0 11.1929 0 25C0 38.8071 11.1929 50 25 50Z" fill="#040029"/>
<g filter="url(#filter0_dd_172_44)">
<path d="M34.0256 36.9642C33.7833 37.2355 33.5427 37.4386 33.302 37.5734C33.2304 37.6126 33.157 37.6468 33.0785 37.6741C33.2986 37.9369 33.5324 38.1707 33.7799 38.372C34.0802 38.128 34.372 37.855 34.657 37.5512L34.0256 36.9642Z" fill="#FF0004"/>
<path d="M29.4557 38.6058C27.6946 37.6758 26.3601 36.355 25.4523 34.6382C25.4267 34.5904 25.4011 34.5427 25.3755 34.4932C25.2663 34.2782 25.1639 34.058 25.0683 33.8328C24.3635 32.1826 24.0103 30.244 24.0103 28.0171C24.0103 26.8737 24.1212 25.7969 24.3448 24.7867C23.1843 24.4386 21.7901 24.2099 20.1622 24.099C21.4181 23.9727 22.5359 23.7713 23.5171 23.4949C23.9898 23.3618 24.4369 23.2167 24.8567 23.0597C26.0564 22.6109 27.041 22.0631 27.8106 21.4164C28.8499 20.5427 29.5888 19.5853 30.0256 18.5461C30.2645 17.9778 30.4386 17.4044 30.5444 16.8225C30.6366 16.3396 30.6809 15.8515 30.6809 15.3601C30.6809 13.6433 30.198 12.2048 29.2338 11.0444C28.2697 9.88396 26.8311 9.00342 24.9181 8.40103C23.0052 7.79864 20.5717 7.49659 17.6195 7.49659C17.0461 7.49659 16.0751 7.51195 14.7048 7.54096C13.3328 7.57168 11.9096 7.58703 10.4335 7.58703C9.07683 7.58703 7.72188 7.57168 6.36523 7.54096C5.01028 7.51195 3.92496 7.48123 3.11096 7.45052V8.35495C4.04441 8.38567 4.74577 8.4983 5.21335 8.69454C5.67922 8.89079 5.99663 9.25256 6.16216 9.77816C6.32769 10.3055 6.4113 11.128 6.4113 12.2423V34.6587C6.4113 35.744 6.32769 36.5563 6.16216 37.099C5.99663 37.6416 5.67922 38.0034 5.21335 38.1843C4.74577 38.3652 4.04441 38.4846 3.11096 38.5461V39.4488C3.92496 39.3891 5.01028 39.3515 6.36523 39.3362C7.72188 39.3208 9.16728 39.314 10.7048 39.314C12.0308 39.314 13.3482 39.3208 14.6587 39.3362C15.9693 39.3515 17.0461 39.3891 17.8908 39.4488V38.5461C16.9557 38.4846 16.256 38.3652 15.7884 38.1843C15.3209 38.0034 15.0052 37.6416 14.8396 37.099C14.6741 36.5563 14.5905 35.744 14.5905 34.6587V24.2645H17.0768C17.9506 24.2645 18.628 24.5427 19.111 25.099C19.5922 25.657 19.9761 26.4181 20.2628 27.3823C20.5495 28.3464 20.7833 29.4471 20.9642 30.6809L21.7321 35.2014C22.0325 37.07 22.7492 38.3498 23.8789 39.0427C25.0086 39.7355 26.4625 40.0819 28.2407 40.0819C29.5956 40.0819 30.7867 39.8942 31.8106 39.5171C31.8106 39.5171 31.814 39.5154 31.8157 39.5154C30.9591 39.2884 30.1741 38.9846 29.4557 38.6058ZM16.1724 23.3601H14.5905V12.2423C14.5905 10.6758 14.7492 9.63652 15.0666 9.12287C15.3823 8.61093 16.0973 8.35495 17.2134 8.35495C19.0205 8.35495 20.3004 9.01024 21.0546 10.3208C21.8072 11.6314 22.1843 13.4778 22.1843 15.8567C22.1843 17.244 22.0256 18.5017 21.7099 19.6314C21.3925 20.7611 20.8055 21.6655 19.9471 22.343C19.0888 23.0205 17.8294 23.3601 16.1724 23.3601Z" fill="#FF0004"/>
</g>
<g filter="url(#filter1_d_172_44)">
<path d="M46.8891 29.4488V30.1161C46.4898 30.1365 46.1826 30.2133 45.971 30.3481C45.7611 30.4812 45.6229 30.7475 45.5563 31.1468C45.4898 31.5461 45.4556 32.157 45.4556 32.9778V39.5717H44.7901C44.7679 39.1946 44.6792 38.785 44.5239 38.3396C44.3686 37.8976 44.1126 37.6741 43.7577 37.6741C43.6024 37.6741 43.3789 37.7184 43.0922 37.8072C42.8038 37.8976 42.3481 38.0956 41.727 38.4062C40.9045 38.8515 40.0239 39.2338 39.0802 39.5546C38.1348 39.8771 37.1758 40.0376 36.1997 40.0376C34.5785 40.0376 33.1178 39.8635 31.8157 39.5154C30.9591 39.2884 30.1741 38.9847 29.4556 38.6058C27.6946 37.6758 26.3601 36.355 25.4522 34.6382C25.4266 34.5905 25.401 34.5427 25.3754 34.4932C25.2662 34.2782 25.1638 34.058 25.0683 33.8328C24.3635 32.1826 24.0103 30.244 24.0103 28.0171C24.0103 26.8737 24.1212 25.7969 24.3447 24.7867C24.4744 24.1877 24.6451 23.6109 24.8567 23.0597C26.0563 22.6109 27.041 22.0632 27.8106 21.4164C28.8498 20.5427 29.5888 19.5853 30.0256 18.5461C30.2645 17.9778 30.4386 17.4044 30.5444 16.8225C32.2918 15.9608 34.2662 15.529 36.4659 15.529C37.9966 15.529 39.2509 15.7406 40.2287 16.1621C41.2048 16.5836 42.0819 17.0939 42.8601 17.6928C43.1024 17.8925 43.3242 17.9932 43.5256 17.9932C43.9471 17.9932 44.2253 17.3277 44.3584 15.9949H45.1229C45.0785 16.8618 45.0461 17.9283 45.0239 19.1911C45.0017 20.4573 44.9898 22.1229 44.9898 24.1877H44.2253C44.0683 22.7219 43.814 21.4727 43.4573 20.442C43.1024 19.4096 42.4266 18.5256 41.4266 17.7935C40.9147 17.372 40.3123 17.0444 39.6126 16.8123C38.913 16.5768 38.2184 16.4625 37.5307 16.4625C36.2867 16.4625 35.2389 16.8004 34.384 17.4778C33.529 18.1536 32.8362 19.041 32.3021 20.1417C31.7696 21.2406 31.3874 22.4625 31.1536 23.8038C30.9215 25.1485 30.8038 26.4966 30.8038 27.8498C30.8038 30.2253 30.9847 32.2184 31.3516 33.8328C31.413 34.1126 31.4829 34.3806 31.558 34.6382C31.7748 35.3942 32.041 36.0495 32.3533 36.6075C32.5751 37.0051 32.8174 37.3618 33.0785 37.6741C33.2986 37.9369 33.5324 38.1707 33.7799 38.372C34.5956 39.0393 35.5563 39.372 36.6655 39.372C37.1092 39.372 37.4983 39.3225 37.8311 39.2219C38.1638 39.1212 38.4403 38.9949 38.6638 38.8396C38.9505 38.6382 39.1519 38.4062 39.2628 38.1399C39.3737 37.8737 39.43 37.541 39.43 37.1399V33.8328C39.43 32.7952 39.3396 32.0171 39.1621 31.4966C38.9847 30.9744 38.657 30.6195 38.1809 30.4318C37.7031 30.244 36.9983 30.1365 36.0649 30.1161V29.4488C36.5546 29.471 37.1417 29.4881 37.8311 29.4983C38.5188 29.5103 39.2406 29.5222 39.9949 29.5324C40.7492 29.5427 41.4488 29.5478 42.0939 29.5478C43.0922 29.5478 44.0085 29.5376 44.8413 29.5154C45.6741 29.4932 46.355 29.471 46.8891 29.4488Z" fill="#D1D0E2"/>
</g>
</g>
<path d="M60.22 21.716C61.116 21.716 61.844 22.0007 62.404 22.57C62.9733 23.13 63.258 23.9467 63.258 25.02V29.5H62.292V25.132C62.292 24.3013 62.0913 23.6667 61.69 23.228C61.2887 22.7893 60.7427 22.57 60.052 22.57C59.3333 22.57 58.7593 22.808 58.33 23.284C57.9007 23.76 57.686 24.4507 57.686 25.356V29.5H56.72V25.132C56.72 24.3013 56.5193 23.6667 56.118 23.228C55.7167 22.7893 55.166 22.57 54.466 22.57C53.7473 22.57 53.1733 22.808 52.744 23.284C52.3147 23.76 52.1 24.4507 52.1 25.356V29.5H51.12V21.856H52.1V23.172C52.3427 22.696 52.688 22.3367 53.136 22.094C53.584 21.842 54.0833 21.716 54.634 21.716C55.2967 21.716 55.8753 21.8747 56.37 22.192C56.874 22.5093 57.238 22.976 57.462 23.592C57.6673 22.9853 58.0173 22.5233 58.512 22.206C59.016 21.8793 59.5853 21.716 60.22 21.716ZM72.3505 25.286C72.3505 25.622 72.3411 25.8787 72.3225 26.056H65.9805C66.0085 26.6347 66.1485 27.1293 66.4005 27.54C66.6525 27.9507 66.9838 28.2633 67.3945 28.478C67.8051 28.6833 68.2531 28.786 68.7385 28.786C69.3731 28.786 69.9051 28.632 70.3345 28.324C70.7731 28.016 71.0625 27.6007 71.2025 27.078H72.2385C72.0518 27.8247 71.6505 28.436 71.0345 28.912C70.4278 29.3787 69.6625 29.612 68.7385 29.612C68.0198 29.612 67.3758 29.4533 66.8065 29.136C66.2371 28.8093 65.7891 28.352 65.4625 27.764C65.1451 27.1667 64.9865 26.4713 64.9865 25.678C64.9865 24.8847 65.1451 24.1893 65.4625 23.592C65.7798 22.9947 66.2231 22.5373 66.7925 22.22C67.3618 21.9027 68.0105 21.744 68.7385 21.744C69.4665 21.744 70.1011 21.9027 70.6425 22.22C71.1931 22.5373 71.6131 22.9667 71.9025 23.508C72.2011 24.04 72.3505 24.6327 72.3505 25.286ZM71.3565 25.258C71.3658 24.6887 71.2491 24.2033 71.0065 23.802C70.7731 23.4007 70.4511 23.0973 70.0405 22.892C69.6298 22.6867 69.1818 22.584 68.6965 22.584C67.9685 22.584 67.3478 22.8173 66.8345 23.284C66.3211 23.7507 66.0365 24.4087 65.9805 25.258H71.3565ZM80.7654 21.856V29.5H79.7854V28.156C79.5614 28.632 79.2161 28.996 78.7494 29.248C78.2828 29.5 77.7601 29.626 77.1814 29.626C76.2668 29.626 75.5201 29.346 74.9414 28.786C74.3628 28.2167 74.0734 27.3953 74.0734 26.322V21.856H75.0394V26.21C75.0394 27.0407 75.2448 27.6753 75.6554 28.114C76.0754 28.5527 76.6448 28.772 77.3634 28.772C78.1008 28.772 78.6888 28.5387 79.1274 28.072C79.5661 27.6053 79.7854 26.9193 79.7854 26.014V21.856H80.7654ZM94.5446 22.57C94.2646 21.926 93.8353 21.422 93.2566 21.058C92.6873 20.6847 92.0153 20.498 91.2406 20.498C90.5126 20.498 89.8593 20.666 89.2806 21.002C88.7019 21.338 88.2446 21.8187 87.9086 22.444C87.5726 23.06 87.4046 23.7787 87.4046 24.6C87.4046 25.4213 87.5726 26.1447 87.9086 26.77C88.2446 27.3953 88.7019 27.876 89.2806 28.212C89.8593 28.548 90.5126 28.716 91.2406 28.716C91.9219 28.716 92.5333 28.5713 93.0746 28.282C93.6253 27.9833 94.0639 27.5633 94.3906 27.022C94.7266 26.4713 94.9179 25.832 94.9646 25.104H90.8486V24.306H96.0006V25.02C95.9539 25.8787 95.7206 26.658 95.3006 27.358C94.8806 28.0487 94.3159 28.5947 93.6066 28.996C92.9066 29.3973 92.1179 29.598 91.2406 29.598C90.3353 29.598 89.5139 29.388 88.7766 28.968C88.0393 28.5387 87.4559 27.946 87.0266 27.19C86.6066 26.4247 86.3966 25.5613 86.3966 24.6C86.3966 23.6387 86.6066 22.78 87.0266 22.024C87.4559 21.2587 88.0393 20.666 88.7766 20.246C89.5139 19.8167 90.3353 19.602 91.2406 19.602C92.2859 19.602 93.2006 19.8633 93.9846 20.386C94.7686 20.9087 95.3379 21.6367 95.6926 22.57H94.5446ZM101.142 29.612C100.423 29.612 99.7744 29.4533 99.1958 29.136C98.6264 28.8093 98.1738 28.352 97.8378 27.764C97.5111 27.1667 97.3478 26.4713 97.3478 25.678C97.3478 24.8847 97.5158 24.194 97.8518 23.606C98.1878 23.0087 98.6451 22.5513 99.2238 22.234C99.8024 21.9073 100.451 21.744 101.17 21.744C101.888 21.744 102.537 21.9073 103.116 22.234C103.704 22.5513 104.161 23.0087 104.488 23.606C104.824 24.194 104.992 24.8847 104.992 25.678C104.992 26.462 104.824 27.1527 104.488 27.75C104.152 28.3473 103.69 28.8093 103.102 29.136C102.514 29.4533 101.86 29.612 101.142 29.612ZM101.142 28.758C101.646 28.758 102.112 28.646 102.542 28.422C102.971 28.1887 103.316 27.8433 103.578 27.386C103.848 26.9193 103.984 26.35 103.984 25.678C103.984 25.006 103.853 24.4413 103.592 23.984C103.33 23.5173 102.985 23.172 102.556 22.948C102.126 22.7147 101.66 22.598 101.156 22.598C100.652 22.598 100.185 22.7147 99.7558 22.948C99.3264 23.172 98.9811 23.5173 98.7198 23.984C98.4678 24.4413 98.3418 25.006 98.3418 25.678C98.3418 26.35 98.4678 26.9193 98.7198 27.386C98.9811 27.8433 99.3218 28.1887 99.7418 28.422C100.171 28.646 100.638 28.758 101.142 28.758ZM115.878 21.716C116.774 21.716 117.502 22.0007 118.062 22.57C118.632 23.13 118.916 23.9467 118.916 25.02V29.5H117.95V25.132C117.95 24.3013 117.75 23.6667 117.348 23.228C116.947 22.7893 116.401 22.57 115.71 22.57C114.992 22.57 114.418 22.808 113.988 23.284C113.559 23.76 113.344 24.4507 113.344 25.356V29.5H112.378V25.132C112.378 24.3013 112.178 23.6667 111.776 23.228C111.375 22.7893 110.824 22.57 110.124 22.57C109.406 22.57 108.832 22.808 108.402 23.284C107.973 23.76 107.758 24.4507 107.758 25.356V29.5H106.778V21.856H107.758V23.172C108.001 22.696 108.346 22.3367 108.794 22.094C109.242 21.842 109.742 21.716 110.292 21.716C110.955 21.716 111.534 21.8747 112.028 22.192C112.532 22.5093 112.896 22.976 113.12 23.592C113.326 22.9853 113.676 22.5233 114.17 22.206C114.674 21.8793 115.244 21.716 115.878 21.716ZM128.009 25.286C128.009 25.622 127.999 25.8787 127.981 26.056H121.639C121.667 26.6347 121.807 27.1293 122.059 27.54C122.311 27.9507 122.642 28.2633 123.053 28.478C123.463 28.6833 123.911 28.786 124.397 28.786C125.031 28.786 125.563 28.632 125.993 28.324C126.431 28.016 126.721 27.6007 126.861 27.078H127.897C127.71 27.8247 127.309 28.436 126.693 28.912C126.086 29.3787 125.321 29.612 124.397 29.612C123.678 29.612 123.034 29.4533 122.465 29.136C121.895 28.8093 121.447 28.352 121.121 27.764C120.803 27.1667 120.645 26.4713 120.645 25.678C120.645 24.8847 120.803 24.1893 121.121 23.592C121.438 22.9947 121.881 22.5373 122.451 22.22C123.02 21.9027 123.669 21.744 124.397 21.744C125.125 21.744 125.759 21.9027 126.301 22.22C126.851 22.5373 127.271 22.9667 127.561 23.508C127.859 24.04 128.009 24.6327 128.009 25.286ZM127.015 25.258C127.024 24.6887 126.907 24.2033 126.665 23.802C126.431 23.4007 126.109 23.0973 125.699 22.892C125.288 22.6867 124.84 22.584 124.355 22.584C123.627 22.584 123.006 22.8173 122.493 23.284C121.979 23.7507 121.695 24.4087 121.639 25.258H127.015ZM132.434 29.612C131.556 29.612 130.838 29.4113 130.278 29.01C129.727 28.5993 129.419 28.044 129.354 27.344H130.362C130.408 27.7733 130.609 28.1233 130.964 28.394C131.328 28.6553 131.813 28.786 132.42 28.786C132.952 28.786 133.367 28.66 133.666 28.408C133.974 28.156 134.128 27.8433 134.128 27.47C134.128 27.2087 134.044 26.994 133.876 26.826C133.708 26.658 133.493 26.5273 133.232 26.434C132.98 26.3313 132.634 26.224 132.196 26.112C131.626 25.9627 131.164 25.8133 130.81 25.664C130.455 25.5147 130.152 25.2953 129.9 25.006C129.657 24.7073 129.536 24.3107 129.536 23.816C129.536 23.4427 129.648 23.0973 129.872 22.78C130.096 22.4627 130.413 22.2107 130.824 22.024C131.234 21.8373 131.701 21.744 132.224 21.744C133.045 21.744 133.708 21.954 134.212 22.374C134.716 22.7847 134.986 23.354 135.024 24.082H134.044C134.016 23.634 133.838 23.2747 133.512 23.004C133.194 22.724 132.756 22.584 132.196 22.584C131.701 22.584 131.3 22.7007 130.992 22.934C130.684 23.1673 130.53 23.4567 130.53 23.802C130.53 24.1007 130.618 24.348 130.796 24.544C130.982 24.7307 131.211 24.88 131.482 24.992C131.752 25.0947 132.116 25.2113 132.574 25.342C133.124 25.4913 133.563 25.636 133.89 25.776C134.216 25.916 134.496 26.1213 134.73 26.392C134.963 26.6627 135.084 27.022 135.094 27.47C135.094 27.8807 134.982 28.2493 134.758 28.576C134.534 28.8933 134.221 29.1453 133.82 29.332C133.418 29.5187 132.956 29.612 132.434 29.612Z" fill="#D1D0E2"/>
<defs>
<filter id="filter0_dd_172_44" x="2.23329" y="7.27498" width="34.0035" height="34.3867" filterUnits="userSpaceOnUse" color-interpolation-filters="sRGB">
<feFlood flood-opacity="0" result="BackgroundImageFix"/>
<feColorMatrix in="SourceAlpha" type="matrix" values="0 0 0 0 0 0 0 0 0 0 0 0 0 0 0 0 0 0 127 0" result="hardAlpha"/>
<feOffset dy="0.702139"/>
<feGaussianBlur stdDeviation="0.438837"/>
<feComposite in2="hardAlpha" operator="out"/>
<feColorMatrix type="matrix" values="0 0 0 0 0 0 0 0 0 0 0 0 0 0 0 0 0 0 0.25 0"/>
<feBlend mode="normal" in2="BackgroundImageFix" result="effect1_dropShadow_172_44"/>
<feColorMatrix in="SourceAlpha" type="matrix" values="0 0 0 0 0 0 0 0 0 0 0 0 0 0 0 0 0 0 127 0" result="hardAlpha"/>
<feOffset dx="0.702139" dy="0.702139"/>
<feGaussianBlur stdDeviation="0.438837"/>
<feComposite in2="hardAlpha" operator="out"/>
<feColorMatrix type="matrix" values="0 0 0 0 0.819608 0 0 0 0 0.815686 0 0 0 0 0.886275 0 0 0 0.25 0"/>
<feBlend mode="normal" in2="effect1_dropShadow_172_44" result="effect2_dropShadow_172_44"/>
<feBlend mode="normal" in="SourceGraphic" in2="effect2_dropShadow_172_44" result="shape"/>
</filter>
<filter id="filter1_d_172_44" x="24.0103" y="15.3535" width="24.8097" height="26.2639" filterUnits="userSpaceOnUse" color-interpolation-filters="sRGB">
<feFlood flood-opacity="0" result="BackgroundImageFix"/>
<feColorMatrix in="SourceAlpha" type="matrix" values="0 0 0 0 0 0 0 0 0 0 0 0 0 0 0 0 0 0 127 0" result="hardAlpha"/>
<feOffset dx="1.05321" dy="0.702139"/>
<feGaussianBlur stdDeviation="0.438837"/>
<feComposite in2="hardAlpha" operator="out"/>
<feColorMatrix type="matrix" values="0 0 0 0 0.635294 0 0 0 0 0.635294 0 0 0 0 0.768627 0 0 0 0.25 0"/>
<feBlend mode="normal" in2="BackgroundImageFix" result="effect1_dropShadow_172_44"/>
<feBlend mode="normal" in="SourceGraphic" in2="effect1_dropShadow_172_44" result="shape"/>
</filter>
<clipPath id="clip0_172_44">
<rect width="50" height="50" fill="white"/>
</clipPath>
</defs>
</svg>
